<mxfile host="app.diagrams.net" agent="Mozilla/5.0 (Windows NT 10.0; Win64; x64) AppleWebKit/537.36 (KHTML, like Gecko) Chrome/133.0.0.0 Safari/537.36" version="26.0.12">
  <diagram name="Page-1" id="lTtPCsVnbs9e19-e_GLY">
    <mxGraphModel dx="1195" dy="620" grid="0" gridSize="10" guides="1" tooltips="1" connect="1" arrows="1" fold="1" page="1" pageScale="1" pageWidth="850" pageHeight="1100" math="0" shadow="0">
      <root>
        <mxCell id="0" />
        <mxCell id="1" parent="0" />
        <mxCell id="ezG_vthXCnAppAjZu0GT-1" value="Agents" style="rounded=0;whiteSpace=wrap;html=1;fillColor=#0050ef;fontColor=#ffffff;strokeColor=none;labelPosition=center;verticalLabelPosition=middle;align=center;verticalAlign=middle;spacingTop=-38;" vertex="1" parent="1">
          <mxGeometry x="78" y="126" width="425" height="58" as="geometry" />
        </mxCell>
        <mxCell id="ezG_vthXCnAppAjZu0GT-2" value="Master Routing Agent" style="rounded=0;whiteSpace=wrap;html=1;fillColor=#fa6800;fontColor=#000000;strokeColor=#C73500;" vertex="1" parent="1">
          <mxGeometry x="86" y="151" width="130" height="25" as="geometry" />
        </mxCell>
        <mxCell id="ezG_vthXCnAppAjZu0GT-3" value="Delivery Agent 1" style="rounded=0;whiteSpace=wrap;html=1;fillColor=#fa6800;fontColor=#000000;strokeColor=#C73500;" vertex="1" parent="1">
          <mxGeometry x="226" y="151" width="130" height="25" as="geometry" />
        </mxCell>
        <mxCell id="ezG_vthXCnAppAjZu0GT-4" value="Delivery Agent 2" style="rounded=0;whiteSpace=wrap;html=1;fillColor=#fa6800;fontColor=#000000;strokeColor=#C73500;" vertex="1" parent="1">
          <mxGeometry x="368" y="152" width="130" height="25" as="geometry" />
        </mxCell>
        <mxCell id="ezG_vthXCnAppAjZu0GT-5" value="" style="rounded=0;whiteSpace=wrap;html=1;fillColor=#0050ef;fontColor=#ffffff;strokeColor=#001DBC;" vertex="1" parent="1">
          <mxGeometry x="129" y="230" width="323" height="226" as="geometry" />
        </mxCell>
        <mxCell id="ezG_vthXCnAppAjZu0GT-6" value="MessageHandling" style="text;html=1;align=center;verticalAlign=middle;whiteSpace=wrap;rounded=0;fontColor=light-dark(#000000,#000000);fontSize=10;" vertex="1" parent="1">
          <mxGeometry x="240" y="230" width="110" height="30" as="geometry" />
        </mxCell>
        <mxCell id="ezG_vthXCnAppAjZu0GT-13" style="edgeStyle=orthogonalEdgeStyle;rounded=0;orthogonalLoop=1;jettySize=auto;html=1;entryX=0.5;entryY=0;entryDx=0;entryDy=0;strokeColor=light-dark(#000000,#4D4D4D);" edge="1" parent="1">
          <mxGeometry relative="1" as="geometry">
            <mxPoint x="280.5" y="294" as="sourcePoint" />
            <mxPoint x="178" y="326" as="targetPoint" />
            <Array as="points">
              <mxPoint x="280.5" y="306" />
              <mxPoint x="178.5" y="306" />
            </Array>
          </mxGeometry>
        </mxCell>
        <mxCell id="ezG_vthXCnAppAjZu0GT-28" style="edgeStyle=orthogonalEdgeStyle;rounded=0;orthogonalLoop=1;jettySize=auto;html=1;entryX=0.25;entryY=0;entryDx=0;entryDy=0;strokeColor=light-dark(#000000,#4D4D4D);" edge="1" parent="1" source="ezG_vthXCnAppAjZu0GT-7" target="ezG_vthXCnAppAjZu0GT-17">
          <mxGeometry relative="1" as="geometry">
            <Array as="points">
              <mxPoint x="288" y="314" />
              <mxPoint x="655" y="314" />
            </Array>
          </mxGeometry>
        </mxCell>
        <mxCell id="ezG_vthXCnAppAjZu0GT-7" value="Message Protocol&lt;span style=&quot;color: rgba(0, 0, 0, 0); font-family: monospace; font-size: 0px; text-align: start; text-wrap-mode: nowrap;&quot;&gt;%3CmxGraphModel%3E%3Croot%3E%3CmxCell%20id%3D%220%22%2F%3E%3CmxCell%20id%3D%221%22%20parent%3D%220%22%2F%3E%3CmxCell%20id%3D%222%22%20value%3D%22Delivery%20Agent%201%22%20style%3D%22rounded%3D0%3BwhiteSpace%3Dwrap%3Bhtml%3D1%3BfillColor%3D%23fa6800%3BfontColor%3D%23000000%3BstrokeColor%3D%23C73500%3B%22%20vertex%3D%221%22%20parent%3D%221%22%3E%3CmxGeometry%20x%3D%22226%22%20y%3D%22151%22%20width%3D%22130%22%20height%3D%2225%22%20as%3D%22geometry%22%2F%3E%3C%2FmxCell%3E%3C%2Froot%3E%3C%2FmxGraphModel%3E&lt;/span&gt;" style="rounded=0;whiteSpace=wrap;html=1;fillColor=#fa6800;fontColor=#000000;strokeColor=#C73500;" vertex="1" parent="1">
          <mxGeometry x="223" y="269" width="130" height="25" as="geometry" />
        </mxCell>
        <mxCell id="ezG_vthXCnAppAjZu0GT-14" style="edgeStyle=orthogonalEdgeStyle;rounded=0;orthogonalLoop=1;jettySize=auto;html=1;strokeColor=light-dark(#000000,#4D4D4D);" edge="1" parent="1" source="ezG_vthXCnAppAjZu0GT-8" target="ezG_vthXCnAppAjZu0GT-9">
          <mxGeometry relative="1" as="geometry" />
        </mxCell>
        <mxCell id="ezG_vthXCnAppAjZu0GT-8" value="Message Handlers" style="rounded=0;whiteSpace=wrap;html=1;fillColor=#fa6800;fontColor=#000000;strokeColor=#C73500;" vertex="1" parent="1">
          <mxGeometry x="131" y="326" width="109" height="25" as="geometry" />
        </mxCell>
        <mxCell id="ezG_vthXCnAppAjZu0GT-9" value="error Recovery" style="rounded=0;whiteSpace=wrap;html=1;fillColor=#fa6800;fontColor=#000000;strokeColor=#C73500;" vertex="1" parent="1">
          <mxGeometry x="131" y="398" width="109" height="25" as="geometry" />
        </mxCell>
        <mxCell id="ezG_vthXCnAppAjZu0GT-10" style="edgeStyle=orthogonalEdgeStyle;rounded=0;orthogonalLoop=1;jettySize=auto;html=1;entryX=0;entryY=0.5;entryDx=0;entryDy=0;strokeColor=light-dark(#000000,#4D4D4D);" edge="1" parent="1" source="ezG_vthXCnAppAjZu0GT-2" target="ezG_vthXCnAppAjZu0GT-7">
          <mxGeometry relative="1" as="geometry">
            <Array as="points">
              <mxPoint x="151" y="282" />
            </Array>
          </mxGeometry>
        </mxCell>
        <mxCell id="ezG_vthXCnAppAjZu0GT-11" style="edgeStyle=orthogonalEdgeStyle;rounded=0;orthogonalLoop=1;jettySize=auto;html=1;strokeColor=light-dark(#000000,#4D4D4D);" edge="1" parent="1" source="ezG_vthXCnAppAjZu0GT-3" target="ezG_vthXCnAppAjZu0GT-7">
          <mxGeometry relative="1" as="geometry">
            <Array as="points">
              <mxPoint x="288" y="207" />
              <mxPoint x="288" y="207" />
            </Array>
          </mxGeometry>
        </mxCell>
        <mxCell id="ezG_vthXCnAppAjZu0GT-12" style="edgeStyle=orthogonalEdgeStyle;rounded=0;orthogonalLoop=1;jettySize=auto;html=1;entryX=1;entryY=0.5;entryDx=0;entryDy=0;strokeColor=light-dark(#000000,#4D4D4D);" edge="1" parent="1" source="ezG_vthXCnAppAjZu0GT-4" target="ezG_vthXCnAppAjZu0GT-7">
          <mxGeometry relative="1" as="geometry">
            <Array as="points">
              <mxPoint x="434" y="282" />
            </Array>
          </mxGeometry>
        </mxCell>
        <mxCell id="ezG_vthXCnAppAjZu0GT-15" value="" style="rounded=0;whiteSpace=wrap;html=1;fillColor=#0050ef;fontColor=#ffffff;strokeColor=#001DBC;" vertex="1" parent="1">
          <mxGeometry x="492" y="351" width="402" height="106" as="geometry" />
        </mxCell>
        <mxCell id="ezG_vthXCnAppAjZu0GT-16" value="Communication Manager" style="text;html=1;align=center;verticalAlign=middle;whiteSpace=wrap;rounded=0;fontColor=light-dark(#000000,#000000);fontSize=10;" vertex="1" parent="1">
          <mxGeometry x="683.5" y="351" width="127" height="30" as="geometry" />
        </mxCell>
        <mxCell id="ezG_vthXCnAppAjZu0GT-23" style="edgeStyle=orthogonalEdgeStyle;rounded=0;orthogonalLoop=1;jettySize=auto;html=1;entryX=0.25;entryY=0;entryDx=0;entryDy=0;fontColor=light-dark(#000000,#4D4D4D);strokeColor=light-dark(#000000,#4D4D4D);" edge="1" parent="1" source="ezG_vthXCnAppAjZu0GT-17" target="ezG_vthXCnAppAjZu0GT-18">
          <mxGeometry relative="1" as="geometry" />
        </mxCell>
        <mxCell id="ezG_vthXCnAppAjZu0GT-25" style="edgeStyle=orthogonalEdgeStyle;rounded=0;orthogonalLoop=1;jettySize=auto;html=1;entryX=0.5;entryY=0;entryDx=0;entryDy=0;strokeColor=light-dark(#000000,#4D4D4D);" edge="1" parent="1" source="ezG_vthXCnAppAjZu0GT-17" target="ezG_vthXCnAppAjZu0GT-19">
          <mxGeometry relative="1" as="geometry">
            <Array as="points">
              <mxPoint x="687" y="407" />
              <mxPoint x="642" y="407" />
            </Array>
          </mxGeometry>
        </mxCell>
        <mxCell id="ezG_vthXCnAppAjZu0GT-26" style="edgeStyle=orthogonalEdgeStyle;rounded=0;orthogonalLoop=1;jettySize=auto;html=1;entryX=0.5;entryY=0;entryDx=0;entryDy=0;strokeColor=light-dark(#000000,#4D4D4D);" edge="1" parent="1" source="ezG_vthXCnAppAjZu0GT-17" target="ezG_vthXCnAppAjZu0GT-20">
          <mxGeometry relative="1" as="geometry">
            <Array as="points">
              <mxPoint x="687" y="407" />
              <mxPoint x="737" y="407" />
            </Array>
          </mxGeometry>
        </mxCell>
        <mxCell id="ezG_vthXCnAppAjZu0GT-27" style="edgeStyle=orthogonalEdgeStyle;rounded=0;orthogonalLoop=1;jettySize=auto;html=1;entryX=0.5;entryY=0;entryDx=0;entryDy=0;strokeColor=light-dark(#000000,#4D4D4D);" edge="1" parent="1" source="ezG_vthXCnAppAjZu0GT-17" target="ezG_vthXCnAppAjZu0GT-21">
          <mxGeometry relative="1" as="geometry" />
        </mxCell>
        <mxCell id="ezG_vthXCnAppAjZu0GT-17" value="Communication Manager" style="rounded=0;whiteSpace=wrap;html=1;fillColor=#fa6800;fontColor=#000000;strokeColor=#C73500;fontSize=10;" vertex="1" parent="1">
          <mxGeometry x="622" y="373" width="130" height="25" as="geometry" />
        </mxCell>
        <mxCell id="ezG_vthXCnAppAjZu0GT-24" style="edgeStyle=orthogonalEdgeStyle;rounded=0;orthogonalLoop=1;jettySize=auto;html=1;entryX=0;entryY=0.75;entryDx=0;entryDy=0;strokeColor=light-dark(#000000,#4D4D4D);" edge="1" parent="1" source="ezG_vthXCnAppAjZu0GT-18" target="ezG_vthXCnAppAjZu0GT-17">
          <mxGeometry relative="1" as="geometry">
            <Array as="points">
              <mxPoint x="542" y="392" />
              <mxPoint x="602" y="392" />
            </Array>
          </mxGeometry>
        </mxCell>
        <mxCell id="ezG_vthXCnAppAjZu0GT-18" value="Message Queue" style="rounded=0;whiteSpace=wrap;html=1;fillColor=#fa6800;fontColor=#000000;strokeColor=#C73500;fontSize=10;" vertex="1" parent="1">
          <mxGeometry x="498" y="423" width="87" height="25" as="geometry" />
        </mxCell>
        <mxCell id="ezG_vthXCnAppAjZu0GT-19" value="Message Tracker" style="rounded=0;whiteSpace=wrap;html=1;fillColor=#fa6800;fontColor=#000000;strokeColor=#C73500;fontSize=10;" vertex="1" parent="1">
          <mxGeometry x="597" y="423" width="90" height="25" as="geometry" />
        </mxCell>
        <mxCell id="ezG_vthXCnAppAjZu0GT-20" value="Queue Tracker&lt;span style=&quot;color: rgba(0, 0, 0, 0); font-family: monospace; font-size: 0px; text-align: start; text-wrap-mode: nowrap;&quot;&gt;%3CmxGraphModel%3E%3Croot%3E%3CmxCell%20id%3D%220%22%2F%3E%3CmxCell%20id%3D%221%22%20parent%3D%220%22%2F%3E%3CmxCell%20id%3D%222%22%20value%3D%22Message%20Tracker%22%20style%3D%22rounded%3D0%3BwhiteSpace%3Dwrap%3Bhtml%3D1%3BfillColor%3D%23fa6800%3BfontColor%3D%23000000%3BstrokeColor%3D%23C73500%3BfontSize%3D10%3B%22%20vertex%3D%221%22%20parent%3D%221%22%3E%3CmxGeometry%20x%3D%22645%22%20y%3D%22423%22%20width%3D%22130%22%20height%3D%2225%22%20as%3D%22geometry%22%2F%3E%3C%2FmxCell%3E%3C%2Froot%3E%3C%2FmxGraphModel%3E&lt;/span&gt;" style="rounded=0;whiteSpace=wrap;html=1;fillColor=#fa6800;fontColor=#000000;strokeColor=#C73500;fontSize=10;" vertex="1" parent="1">
          <mxGeometry x="698" y="423" width="78" height="25" as="geometry" />
        </mxCell>
        <mxCell id="ezG_vthXCnAppAjZu0GT-21" value="Memory Tracker" style="rounded=0;whiteSpace=wrap;html=1;fillColor=#fa6800;fontColor=#000000;strokeColor=#C73500;fontSize=10;" vertex="1" parent="1">
          <mxGeometry x="787" y="423" width="83" height="25" as="geometry" />
        </mxCell>
      </root>
    </mxGraphModel>
  </diagram>
</mxfile>
